# Blender 3.6.1
# www.blender.org
mtllib nanosuit_visor.mtl
o Visor
v 0.320384 14.057541 0.507778
v 0.385196 13.984534 0.445065
v 0.416643 14.114325 0.462460
v 0.629804 14.365792 0.220989
v 0.643727 14.511806 0.201992
v 0.624523 14.536142 0.250057
v 0.626923 14.357680 0.224194
v 0.598598 14.519918 0.300182
v 0.605319 14.333345 0.262417
v 0.516982 14.252226 0.379604
v 0.571713 14.503694 0.351681
v 0.522263 14.487471 0.422634
v 0.445928 14.479359 0.506405
v 0.458891 14.171107 0.431789
v 0.340788 14.203555 0.534329
v 0.335027 14.146772 0.525173
v 0.265893 14.098101 0.546230
v 0.235407 14.187331 0.577816
v 0.195679 14.252226 0.604824
v 0.358791 14.471247 0.573696
v 0.246449 14.463135 0.627712
v 0.121145 14.455023 0.659756
v 0.150431 14.276562 0.621304
v 0.071395 14.309009 0.642361
v 0.009703 14.325233 0.651058
v 0.009703 14.455023 0.673946
v 0.009703 14.325233 0.651058
v 0.009703 14.455023 0.673946
v -0.101738 14.455023 0.659756
v -0.051989 14.309009 0.642361
v -0.131024 14.276562 0.621304
v -0.176273 14.252226 0.604824
v -0.227163 14.463135 0.627712
v -0.339505 14.471247 0.573696
v -0.321501 14.203555 0.534786
v -0.426402 14.479359 0.506405
v -0.439364 14.171107 0.431789
v -0.497456 14.252226 0.379604
v -0.502737 14.487471 0.422634
v -0.552186 14.503694 0.351681
v -0.579071 14.519918 0.300182
v -0.585793 14.333345 0.262417
v -0.607877 14.357680 0.224194
v -0.604996 14.536142 0.250057
v -0.610758 14.365792 0.220989
v -0.624200 14.511806 0.201992
v -0.315740 14.146772 0.525173
v -0.300857 14.057541 0.507778
v -0.246487 14.098101 0.546230
v -0.216001 14.187331 0.577816
v -0.397356 14.114325 0.462460
v -0.365670 13.984534 0.445065
vn 0.4969 -0.2408 0.8337
vn 0.5246 -0.2367 0.8178
vn 0.5817 -0.1619 0.7971
vn 0.8368 -0.0668 0.5435
vn 0.9213 -0.0375 0.3871
vn 0.9045 -0.0468 0.4239
vn 0.8728 -0.0625 0.4840
vn 0.8826 -0.0872 0.4620
vn 0.8492 -0.0752 0.5227
vn 0.7824 -0.1194 0.6112
vn 0.8724 -0.1378 0.4689
vn 0.7850 -0.1285 0.6061
vn 0.6768 -0.1467 0.7214
vn 0.6715 -0.1193 0.7314
vn 0.5046 -0.1610 0.8482
vn 0.4779 -0.2060 0.8539
vn 0.4163 -0.2084 0.8850
vn 0.3976 -0.1539 0.9046
vn 0.3498 -0.1623 0.9227
vn 0.5211 -0.1700 0.8364
vn 0.3615 -0.1862 0.9136
vn 0.1896 -0.1674 0.9675
vn 0.2366 -0.1674 0.9571
vn 0.1423 -0.1647 0.9760
vn 0.1088 -0.1592 0.9812
vn 0.1244 -0.1723 0.9772
vn -0.1088 -0.1592 0.9812
vn -0.1244 -0.1723 0.9772
vn -0.1895 -0.1674 0.9675
vn -0.1423 -0.1647 0.9760
vn -0.2366 -0.1674 0.9571
vn -0.3505 -0.1640 0.9221
vn -0.3614 -0.1863 0.9136
vn -0.5213 -0.1691 0.8364
vn -0.5046 -0.1768 0.8451
vn -0.6775 -0.1461 0.7208
vn -0.6620 -0.1231 0.7393
vn -0.7824 -0.1194 0.6112
vn -0.7850 -0.1285 0.6061
vn -0.8724 -0.1378 0.4689
vn -0.8822 -0.0863 0.4629
vn -0.8473 -0.0759 0.5256
vn -0.8697 -0.0629 0.4896
vn -0.9046 -0.0443 0.4239
vn -0.8353 -0.0649 0.5459
vn -0.9219 -0.0347 0.3859
vn -0.4959 -0.1941 0.8464
vn -0.4964 -0.2419 0.8337
vn -0.4160 -0.2090 0.8850
vn -0.4218 -0.1279 0.8976
vn -0.5718 -0.1230 0.8111
vn -0.5239 -0.2375 0.8180
vt 0.439941 0.453613
vt 0.541992 0.372070
vt 0.564941 0.521973
vt 0.941895 0.786621
vt 0.975098 0.947144
vt 0.918945 0.979507
vt 0.937012 0.779907
vt 0.855957 0.964294
vt 0.887207 0.751465
vt 0.717285 0.670410
vt 0.791016 0.946960
vt 0.692383 0.934814
vt 0.564941 0.930054
vt 0.626953 0.585449
vt 0.447510 0.625488
vt 0.446777 0.558594
vt 0.362549 0.505859
vt 0.315918 0.600342
vt 0.262451 0.676758
vt 0.444092 0.921448
vt 0.306152 0.915588
vt 0.160400 0.906677
vt 0.210327 0.708496
vt 0.116638 0.741943
vt 0.059570 0.754761
vt 0.046417 0.900818
vt 0.447510 0.627197
vt 0.446777 0.559082
s 1
usemtl Glass
f 1/1/1 2/2/2 3/3/3
f 4/4/4 5/5/5 6/6/6
f 6/6/6 7/7/7 4/4/4
f 7/7/7 6/6/6 8/8/8
f 8/8/8 9/9/9 7/7/7
f 10/10/10 9/9/9 8/8/8
f 8/8/8 11/11/11 10/10/10
f 10/10/10 11/11/11 12/12/12
f 10/10/10 12/12/12 13/13/13
f 13/13/13 14/14/14 10/10/10
f 15/15/15 14/14/14 13/13/13
f 3/3/3 14/14/14 15/15/15
f 15/15/15 16/16/16 3/3/3
f 16/16/16 1/1/1 3/3/3
f 17/17/17 1/1/1 16/16/16
f 16/16/16 18/18/18 17/17/17
f 18/18/18 16/16/16 15/15/15
f 15/15/15 19/19/19 18/18/18
f 19/19/19 15/15/15 20/20/20
f 13/13/13 20/20/20 15/15/15
f 20/20/20 21/21/21 19/19/19
f 19/19/19 21/21/21 22/22/22
f 22/22/22 23/23/23 19/19/19
f 24/24/24 23/23/23 22/22/22
f 25/25/25 24/24/24 22/22/22
f 22/22/22 26/26/26 25/25/25
f 27/25/27 28/26/28 29/22/29
f 29/22/29 30/24/30 27/25/27
f 30/24/30 29/22/29 31/23/31
f 32/19/32 31/23/31 29/22/29
f 29/22/29 33/21/33 32/19/32
f 32/19/32 33/21/33 34/20/34
f 34/20/34 35/27/35 32/19/32
f 35/27/35 34/20/34 36/13/36
f 36/13/36 37/14/37 35/27/35
f 38/10/38 37/14/37 36/13/36
f 36/13/36 39/12/39 38/10/38
f 38/10/38 39/12/39 40/11/40
f 38/10/38 40/11/40 41/8/41
f 41/8/41 42/9/42 38/10/38
f 43/7/43 42/9/42 41/8/41
f 41/8/41 44/6/44 43/7/43
f 45/4/45 43/7/43 44/6/44
f 44/6/44 46/5/46 45/4/45
f 47/28/47 48/1/48 49/17/49
f 49/17/49 50/18/50 47/28/47
f 47/28/47 50/18/50 32/19/32
f 32/19/32 35/27/35 47/28/47
f 47/28/47 35/27/35 37/14/37
f 37/14/37 51/3/51 47/28/47
f 48/1/48 47/28/47 51/3/51
f 51/3/51 52/2/52 48/1/48
